<?xml version="1.0" standalone="no"?>
<!DOCTYPE svg PUBLIC "-//W3C//DTD SVG 20010904//EN"
 "http://www.w3.org/TR/2001/REC-SVG-20010904/DTD/svg10.dtd">
<svg version="1.0" xmlns="http://www.w3.org/2000/svg"
 width="1024.000000pt" height="1024.000000pt" viewBox="0 0 1024.000000 1024.000000"
 preserveAspectRatio="xMidYMid meet">
<metadata>
Created by potrace 1.16, written by Peter Selinger 2001-2019
</metadata>
<g transform="translate(0.000000,1024.000000) scale(0.100000,-0.100000)"
fill="#000000" stroke="none">
<path d="M2560 5120 l0 -2560 515 0 515 0 0 1025 0 1025 510 0 510 0 0 -1025
0 -1025 510 0 510 0 0 1855 0 1855 -510 0 -510 0 0 -320 0 -320 -510 0 -510 0
0 1025 0 1025 -515 0 -515 0 0 -2560z"/>
<path d="M4610 7165 l0 -515 510 0 510 0 0 515 0 515 -510 0 -510 0 0 -515z"/>
<path d="M6650 6655 l0 -1025 -320 0 -320 0 0 -510 0 -510 320 0 320 0 0
-1025 0 -1025 515 0 515 0 0 2560 0 2560 -515 0 -515 0 0 -1025z"/>
</g>
</svg>
